<svg xmlns="http://www.w3.org/2000/svg" viewBox="0 0 664.36 792.16"><defs><style>.cls-1,.cls-5,.cls-8{fill:none;}.cls-1,.cls-4,.cls-5,.cls-6,.cls-7{stroke:#000;stroke-miterlimit:10;}.cls-1{stroke-width:12px;}.cls-2{font-size:91.54px;}.cls-2,.cls-3{font-family:CollegeBoy, College;}.cls-3{font-size:91.54px;}.cls-4{stroke-width:2px;}.cls-5,.cls-7{stroke-width:3px;}.cls-9{font-size:67.09px;fill:#fff;font-family:Athletic;}</style></defs><title>LOGO NACHO-1</title><g id="Capa_2" data-name="Capa 2"><path class="cls-1" d="M400.5,589.5c-131.32-110.21-210.91-255.81-243-423.74C270.1,147.12,350.8,106.43,403,75h0c47.39,33.36,125.75,72.71,240.5,90.5-19,155.31-98.63,296.68-243,424Z" transform="translate(-71.15 -67.84)"/><text class="cls-2" transform="translate(357.42 247.06) scale(1.43 1)">h</text><text class="cls-3" transform="translate(268.85 147.33) scale(1.45 1)">i</text><text class="cls-3" transform="translate(367.85 147.29) scale(1.37 1)">l</text><text class="cls-3" transform="translate(254.35 246.98) scale(1.39 1)">a</text></g><g id="Capa_4" data-name="Capa 4"><path class="cls-4" d="M285.06,581.16c22.12-5.58,26.25-26,19.6-55.43-10.09-.89-16.78,33.43-29.73,42.8Z" transform="translate(-71.15 -67.84)"/><path class="cls-4" d="M282.86,581.42c-14.88,12.13-34.5,4.74-57-14.36,3.81-7.24,36.61,5.32,50.61,1.25Z" transform="translate(-71.15 -67.84)"/><path class="cls-4" d="M257.81,539.67c22.12-5.57,26.25-26,19.6-55.43-10.09-.89-16.78,33.44-29.73,42.8Z" transform="translate(-71.15 -67.84)"/><path class="cls-4" d="M253.58,540.79c-14.87,12.14-34.49,4.74-57-14.36,3.8-7.24,36.61,5.32,50.6,1.26Z" transform="translate(-71.15 -67.84)"/><path class="cls-4" d="M231.06,497.24c22.48-4.22,28.09-24.37,23.57-54.08-10-1.5-19.17,32.32-32.77,40.87Z" transform="translate(-71.15 -67.84)"/><path class="cls-4" d="M226.91,497.29C212,509.42,192.42,502,170,482.93c3.8-7.25,36.61,5.32,50.61,1.25Z" transform="translate(-71.15 -67.84)"/><path class="cls-4" d="M207.62,449.91c19.9-6.16,22.53-25.16,14.8-51.88-9.26-.35-13.46,31.52-24.77,40.73Z" transform="translate(-71.15 -67.84)"/><path class="cls-4" d="M200.51,449.8c-17.27,9.1-34.89-1.78-52.73-24.62,5.33-6.37,34.75,12,49.38,10.63Z" transform="translate(-71.15 -67.84)"/><path class="cls-4" d="M183.76,397.81c18.59-6.69,20.44-28.91,12.26-60.43-8.77-.66-11.67,36.6-22,47.11Z" transform="translate(-71.15 -67.84)"/><path class="cls-4" d="M177.5,396.62c-18,7.75-34.64-4.41-50.38-28.5,5.89-5.94,33.58,14.57,48.3,14.31Z" transform="translate(-71.15 -67.84)"/><path class="cls-4" d="M163.17,344.35c15.32-5.62,16.78-24.42,9.93-51.11-7.23-.58-9.51,30.95-18,39.82Z" transform="translate(-71.15 -67.84)"/><path class="cls-4" d="M159,345.31c-15.73,3-29.33-12.49-41.65-39.1,5.29-4.22,28,21.87,40.52,25.16Z" transform="translate(-71.15 -67.84)"/><path class="cls-4" d="M143,287.72c15.1-6.82,15-26.44,5.8-53.73-7.4-.14-7.07,32.76-15,42.52Z" transform="translate(-71.15 -67.84)"/><path class="cls-4" d="M138.3,286.43c-15,2.93-27.76-11.58-39.27-36.54,5.06-4,26.4,20.41,38.3,23.42Z" transform="translate(-71.15 -67.84)"/><path class="cls-4" d="M122,224c10-4.18,11-20.2,6.46-43.31-4.74-.79-6.2,26.08-11.77,33.31Z" transform="translate(-71.15 -67.84)"/><path class="cls-4" d="M122.33,225.79c-15,2.93-27.76-11.57-39.27-36.53,5.06-4,26.4,20.4,38.3,23.42Z" transform="translate(-71.15 -67.84)"/><path class="cls-4" d="M105.05,164.28c-13.26,3-23.78-8.36-32.67-28.32,4.63-3.47,22.16,15.64,32.45,17.63Z" transform="translate(-71.15 -67.84)"/><path class="cls-4" d="M106,167.2c10.09-3.69,11.5-18.32,7.72-39.5-4.69-.78-7,23.76-12.71,30.3Z" transform="translate(-71.15 -67.84)"/><path class="cls-5" d="M311.5,606.5C207.68,496,137.55,321.35,89.46,104.8c58.3,241.3,130.77,416.9,222.13,505" transform="translate(-71.15 -67.84)"/><path class="cls-4" d="M521.59,581.59c-22.12-5.58-26.25-26-19.6-55.43,10.09-.89,16.78,33.43,29.72,42.8Z" transform="translate(-71.15 -67.84)"/><path class="cls-4" d="M523.79,581.85c14.88,12.14,34.5,4.74,57-14.36-3.81-7.24-36.61,5.32-50.61,1.26Z" transform="translate(-71.15 -67.84)"/><path class="cls-4" d="M548.84,540.11c-22.12-5.58-26.25-26-19.6-55.43,10.09-.89,16.78,33.43,29.73,42.8Z" transform="translate(-71.15 -67.84)"/><path class="cls-4" d="M553.07,541.23c14.87,12.13,34.49,4.73,57-14.36-3.8-7.25-36.61,5.32-50.61,1.25Z" transform="translate(-71.15 -67.84)"/><path class="cls-4" d="M575.59,497.67C553.1,493.46,547.5,473.3,552,443.6c10-1.51,19.17,32.31,32.77,40.87Z" transform="translate(-71.15 -67.84)"/><path class="cls-4" d="M579.73,497.72c14.88,12.14,34.5,4.74,57-14.36-3.8-7.24-36.61,5.32-50.61,1.26Z" transform="translate(-71.15 -67.84)"/><path class="cls-4" d="M599,450.34c-19.9-6.15-22.53-25.16-14.81-51.87,9.27-.35,13.47,31.52,24.78,40.73Z" transform="translate(-71.15 -67.84)"/><path class="cls-4" d="M606.14,450.24c17.27,9.09,34.89-1.78,52.73-24.62-5.33-6.37-34.75,12-49.39,10.63Z" transform="translate(-71.15 -67.84)"/><path class="cls-4" d="M622.89,398.25c-18.59-6.7-20.44-28.92-12.26-60.44,8.77-.65,11.67,36.61,22,47.11Z" transform="translate(-71.15 -67.84)"/><path class="cls-4" d="M629.15,397.05c18,7.75,34.64-4.41,50.38-28.5-5.89-5.94-33.58,14.58-48.3,14.32Z" transform="translate(-71.15 -67.84)"/><path class="cls-4" d="M643.48,344.79c-15.32-5.63-16.78-24.42-9.94-51.12,7.24-.57,9.52,30.95,18.05,39.82Z" transform="translate(-71.15 -67.84)"/><path class="cls-4" d="M647.65,345.75c15.73,3,29.33-12.49,41.65-39.1-5.29-4.22-28,21.87-40.52,25.15Z" transform="translate(-71.15 -67.84)"/><path class="cls-4" d="M663.64,288.16c-15.1-6.83-15-26.45-5.81-53.74,7.41-.13,7.08,32.76,15,42.52Z" transform="translate(-71.15 -67.84)"/><path class="cls-4" d="M668.35,286.86c15,2.94,27.76-11.57,39.27-36.53-5.06-4-26.4,20.4-38.3,23.42Z" transform="translate(-71.15 -67.84)"/><path class="cls-4" d="M684.66,224.42c-10-4.18-11-20.19-6.46-43.3,4.74-.79,6.2,26.07,11.77,33.31Z" transform="translate(-71.15 -67.84)"/><path class="cls-4" d="M684.32,226.22c15,2.94,27.76-11.57,39.27-36.53-5.06-4-26.4,20.41-38.3,23.42Z" transform="translate(-71.15 -67.84)"/><path class="cls-4" d="M701.6,164.71c13.25,3,23.78-8.35,32.67-28.31-4.63-3.48-22.16,15.63-32.45,17.62Z" transform="translate(-71.15 -67.84)"/><path class="cls-4" d="M700.61,167.64c-10.09-3.7-11.51-18.33-7.72-39.51,4.68-.78,7,23.76,12.71,30.3Z" transform="translate(-71.15 -67.84)"/><path class="cls-5" d="M495.15,606.93c103.81-110.54,174-285.14,222-501.69-58.3,241.29-130.77,416.9-222.13,505" transform="translate(-71.15 -67.84)"/></g><g id="Capa_5" data-name="Capa 5"><path class="cls-6" d="M136.65,450.42C111.29,491.86,91.2,532.32,80.07,573l28.49,18.69c-17.2,28.74-22.08,65.12-26,101.81,24.34-2.08,40.62-7.06,60.54-14.64,5.81,24.14,16.48,44.76,29.63,63.58,9.37-47.3,23.1-91.53,42.33-131.86-17.79,16.15-34.83,29.2-50.15,35,8.42-31.69,20.6-61,39.52-86.15Z" transform="translate(-71.15 -67.84)"/><path class="cls-6" d="M672.64,443.22c25.36,41.43,45.45,81.89,56.58,122.52l-28.49,18.69c17.2,28.74,22.09,65.12,26,101.81-24.33-2.08-40.62-7.06-60.54-14.64-5.81,24.14-16.48,44.76-29.62,63.58-9.38-47.3-23.11-91.53-42.34-131.86,17.79,16.15,34.83,29.2,50.15,35-8.42-31.68-20.6-61-39.52-86.15Z" transform="translate(-71.15 -67.84)"/></g><g id="Capa_3" data-name="Capa 3"><path class="cls-7" d="M297.5,483.5c66.87-13.23,144.71-21.19,208,1,25.89-25.67,43.77-71.53,66-102-121.83-48.73-225.16-49.62-339.94-1.38C253.53,412.28,270,458.91,297.5,483.5Z" transform="translate(-71.15 -67.84)"/><rect class="cls-7" x="217.35" y="157.66" width="228" height="16"/></g><g id="Capa_6" data-name="Capa 6"><path class="cls-8" d="M254,760A100,100,0,0,0,354,860" transform="translate(-71.15 -67.84)"/><text class="cls-9" transform="translate(244.7 376.01) rotate(-19.33) scale(1.1 1)">2</text><text class="cls-9" transform="matrix(1.09, -0.12, 0.11, 0.99, 290.63, 360.93)">0</text><text class="cls-9" transform="translate(338.25 356.64) rotate(7.55) scale(1.1 1)">2</text><text class="cls-9" transform="translate(385.67 363.87) rotate(22.93) scale(1.1 1)">2</text></g></svg>